<?xml version="1.0" encoding="utf-8"?>
<!-- Generator: Adobe Illustrator 24.0.0, SVG Export Plug-In . SVG Version: 6.00 Build 0)  -->
<svg version="1.1" xmlns="http://www.w3.org/2000/svg" xmlns:xlink="http://www.w3.org/1999/xlink" x="0px" y="0px"
	 viewBox="0 0 1366 768" style="enable-background:new 0 0 1366 768;" xml:space="preserve">
<style type="text/css">
	.st0{fill:none;stroke:#FF1F26;stroke-width:5;stroke-linecap:round;stroke-linejoin:round;stroke-miterlimit:10;}
	.st1{fill:#FFFFFF;stroke:#FFFFFF;stroke-width:24;stroke-linecap:round;stroke-linejoin:round;stroke-miterlimit:10;}
	.st2{fill:#FF1F26;}
</style>
<g id="Layer_1">
	<path class="st0" d="M878.88,180.25"/>
	<circle class="st1" cx="689.5" cy="383.5" r="354.5"/>
</g>
<g id="Layer_2">
	<path class="st2" d="M608.9,553.26c-0.25,0-0.5-0.01-0.76-0.03c-4.71-0.39-8.34-4.33-8.34-9.06V335.73l-15.55,108.83
		c-0.61,4.3-4.19,7.57-8.53,7.79c-4.35,0.22-8.23-2.66-9.29-6.87l-27.68-110.7l-22.65,45.29c-1.54,3.08-4.69,5.02-8.13,5.02H373.45
		c-5.02,0-9.09-4.07-9.09-9.09s4.07-9.09,9.09-9.09h128.92l31.12-62.25c1.7-3.4,5.33-5.39,9.12-4.97c3.78,0.41,6.9,3.14,7.83,6.83
		l22.38,89.52l27.07-189.51c0.67-4.72,4.89-8.12,9.64-7.78c4.76,0.34,8.45,4.3,8.45,9.07v226.52l15.58-93.47
		c0.56-3.36,2.95-6.12,6.19-7.16c3.24-1.04,6.79-0.18,9.2,2.23l30.97,30.97h97.14c5.02,0,9.09,4.07,9.09,9.09v168.17
		c0,5.02-4.07,9.09-9.09,9.09s-9.09-4.07-9.09-9.09V385.09h-91.82c-2.41,0-4.72-0.96-6.43-2.66l-21.14-21.15l-30.73,184.39
		C617.13,550.08,613.3,553.26,608.9,553.26z"/>
	<path class="st2" d="M877.97,351.45h-100.9c-5.02,0-9.09-4.07-9.09-9.09V207.83c0-5.02,4.07-9.09,9.09-9.09s9.09,4.07,9.09,9.09
		v125.45h91.81c5.02,0,9.09,4.07,9.09,9.09S882.99,351.45,877.97,351.45z"/>
	<path class="st2" d="M911.61,553.26H810.7c-5.02,0-9.09-4.07-9.09-9.09c0-5.02,4.07-9.09,9.09-9.09h99.56
		c40.71-12.62,66.87-51.97,59.68-90.13c-5.39-28.62-29.16-52.22-60.56-60.14c-4.87-1.23-7.82-6.17-6.59-11.04
		c1.23-4.87,6.17-7.82,11.04-6.59c38.25,9.64,67.28,38.84,73.98,74.4c8.96,47.6-23.38,96.49-73.63,111.31
		C913.34,553.14,912.48,553.26,911.61,553.26z"/>
	<path class="st2" d="M876.1,319.69c-1.64,0-3.29-0.44-4.79-1.37c-4.27-2.65-5.58-8.25-2.93-12.52
		c11.46-18.47,12.11-41.41,1.68-59.87c-11.54-20.43-34.42-31.84-58.31-29.08c-5,0.58-9.5-3-10.07-7.98c-0.58-4.99,3-9.5,7.98-10.07
		c31.17-3.6,61.09,11.38,76.23,38.19c13.7,24.25,12.91,54.29-2.06,78.4C882.11,318.16,879.14,319.69,876.1,319.69z"/>
</g>
</svg>
